<svg width="2363" height="298" viewBox="0 0 2363 298" fill="none" xmlns="http://www.w3.org/2000/svg">
<path d="M96.1635 135.497V112.505C96.1635 111.209 95.5354 109.993 94.4783 109.243L61.6307 85.9354C60.5718 85.184 59.9434 83.9654 59.9454 82.6671L59.9755 63.0843C59.9775 61.741 60.6538 60.4883 61.7758 59.7496L105.347 31.0615C106.47 30.3215 107.147 29.0662 107.147 27.7206V7.39209C107.147 4.21405 103.619 2.30521 100.959 4.04352L37.4455 45.5419C36.3165 46.2795 35.6353 47.5363 35.6334 48.8848L35.5846 83.3757C35.5827 84.7007 34.9248 85.9388 33.8277 86.6818L1.75685 108.404C0.658129 109.148 0 110.389 0 111.716V187.688C0 189.015 0.658131 190.255 1.75686 191L33.8277 212.721C34.9248 213.465 35.5827 214.703 35.5846 216.028L35.6332 250.385C35.6352 251.806 36.3909 253.119 37.6185 253.835L107.521 294.59C108.769 295.317 110.312 295.315 111.558 294.585L140.075 277.865C141.3 277.147 142.052 275.833 142.052 274.414V255.232C142.052 252.141 138.696 250.218 136.029 251.782L111.522 266.149C110.275 266.879 108.732 266.881 107.484 266.154L77.4913 248.669C74.9298 247.176 74.8263 243.512 77.2993 241.877L103.018 224.868C104.367 223.976 106.12 223.984 107.461 224.888L118.46 232.305C119.733 233.164 121.386 233.218 122.712 232.444L138.377 223.304C140.933 221.813 141.041 218.159 138.578 216.519L107.755 196.003C106.431 195.122 104.711 195.109 103.373 195.97L66.1148 219.966C63.4553 221.679 59.954 219.773 59.949 216.609L59.9273 202.889C59.9252 201.564 59.2672 200.326 58.1701 199.583L26.1179 177.879C25.019 177.135 24.3607 175.894 24.3607 174.567V124.836C24.3607 123.509 25.0191 122.268 26.1182 121.524L46.0776 108.011C47.4316 107.095 49.2072 107.094 50.5615 108.011L70.0442 121.192C71.1439 121.936 71.8028 123.177 71.8028 124.505V133.965C71.8028 135.285 71.1516 136.52 70.0626 137.266L44.1469 155.009C41.7976 156.618 41.8334 160.096 44.2153 161.656L57.8856 170.609C59.2131 171.478 60.9289 171.48 62.2589 170.615L80.6831 158.624C82.0252 157.751 83.7589 157.762 85.0897 158.653L106.533 173.003C109.19 174.782 112.757 172.877 112.757 169.679V149.12C112.757 149.028 112.712 148.942 112.635 148.889L97.9029 138.797C96.8143 138.051 96.1635 136.817 96.1635 135.497Z" fill="url(#paint0_linear_553_2)"/>
<path d="M334.047 248.932L334.095 214.459C334.097 213.134 334.755 211.896 335.852 211.153L367.923 189.431C369.022 188.687 369.68 187.446 369.68 186.119V110.128C369.68 108.801 369.022 107.561 367.923 106.817L335.852 85.0946C334.755 84.3515 334.097 83.1134 334.095 81.7884L334.047 47.4314C334.045 46.0102 333.289 44.6967 332.061 43.9811L262.159 3.24435C260.911 2.51706 259.368 2.5191 258.122 3.24969L229.605 19.97C228.38 20.688 227.628 22.0011 227.628 23.4206V42.5838C227.628 45.6748 230.984 47.5978 233.651 46.0345L258.158 31.6674C259.405 30.9369 260.948 30.935 262.196 31.6625L292.189 49.1471C294.75 50.6403 294.854 54.3037 292.381 55.9391L266.64 72.9628C265.302 73.8475 263.565 73.8477 262.227 72.9632L251.21 65.6797C249.941 64.8406 248.305 64.7943 246.991 65.5603L231.327 74.6866C228.765 76.1794 228.661 79.8436 231.134 81.4792L261.927 101.842C263.25 102.717 264.966 102.727 266.3 101.868L303.564 77.8533C306.224 76.1395 309.726 78.0454 309.731 81.2093L309.753 94.9272C309.755 96.2521 310.413 97.4901 311.51 98.233L343.562 119.937C344.661 120.681 345.319 121.922 345.319 123.249V172.98C345.319 174.307 344.661 175.548 343.562 176.292L323.602 189.805C322.248 190.721 320.473 190.722 319.118 189.805L299.636 176.624C298.536 175.88 297.877 174.639 297.877 173.311V163.869C297.877 162.549 298.528 161.315 299.616 160.569L325.536 142.807C327.885 141.198 327.848 137.721 325.467 136.161L311.794 127.207C310.467 126.338 308.751 126.336 307.421 127.201L288.997 139.192C287.655 140.065 285.921 140.054 284.59 139.163L263.147 124.813C260.49 123.034 256.923 124.939 256.923 128.137V148.696C256.923 148.788 256.968 148.875 257.044 148.927L271.777 159.019C272.866 159.765 273.516 160.999 273.516 162.319V186.134C273.516 187.452 274.167 188.687 275.254 189.432L307.997 211.885C309.086 212.632 309.737 213.869 309.734 215.19L309.705 234.732C309.702 236.075 309.026 237.328 307.904 238.066L264.333 266.755C263.21 267.495 262.533 268.75 262.533 270.095V282.887V290.441C262.533 293.619 266.061 295.528 268.722 293.789L332.235 252.274C333.364 251.537 334.045 250.28 334.047 248.932Z" fill="url(#paint1_linear_553_2)"/>
<path d="M203 244C203 249.523 198.523 254 193 254H177C171.477 254 167 249.523 167 244V54C167 48.4772 171.477 44 177 44H193C198.523 44 203 48.4772 203 54V244Z" fill="white"/>
<path d="M612.18 53.8479C612.18 48.2938 616.706 43.8038 622.26 43.8482L639.76 43.9882C645.251 44.0321 649.68 48.4963 649.68 53.9879V233.779C649.68 242.072 640.166 246.761 633.589 241.71L612.18 225.268L493.286 133.587C486.712 128.518 477.18 133.204 477.18 141.506V244.068C477.18 249.59 472.703 254.068 467.18 254.068H449.68C444.157 254.068 439.68 249.59 439.68 244.068V64.9564C439.68 56.6633 449.193 51.9741 455.771 57.0255L477.18 73.4676L596.073 165.148C602.648 170.217 612.18 165.531 612.18 157.229V53.8479Z" fill="white"/>
<path d="M719.68 53.918C719.68 48.3951 724.157 43.918 729.68 43.918H919.38C924.903 43.918 929.38 48.3951 929.38 53.918V71.418C929.38 76.9408 924.903 81.418 919.38 81.418H853.28C847.757 81.418 843.28 85.8951 843.28 91.418V243.918C843.28 249.441 838.803 253.918 833.28 253.918H815.78C810.257 253.918 805.78 249.441 805.78 243.918V91.418C805.78 85.8951 801.303 81.418 795.78 81.418H729.68C724.157 81.418 719.68 76.9408 719.68 71.418V53.918Z" fill="white"/>
<path d="M1055.78 81.418C1045.28 81.418 1036.58 90.118 1036.58 100.618V110.118C1036.58 115.641 1041.06 120.118 1046.58 120.118H1161.58C1167.1 120.118 1171.58 124.595 1171.58 130.118V147.618C1171.58 153.141 1167.1 157.618 1161.58 157.618H1046.58C1041.06 157.618 1036.58 162.095 1036.58 167.618V197.218C1036.58 207.718 1045.28 216.418 1055.78 216.418H1199.08C1204.6 216.418 1209.08 220.895 1209.08 226.418V243.918C1209.08 249.441 1204.6 253.918 1199.08 253.918H1055.78C1024.58 253.918 999.381 228.418 999.381 197.218V100.618C999.381 69.418 1024.58 43.918 1055.78 43.918H1199.08C1204.6 43.918 1209.08 48.3951 1209.08 53.918V71.418C1209.08 76.9408 1204.6 81.418 1199.08 81.418H1055.78Z" fill="white"/>
<path d="M1342.08 216.118L1442.21 216.391C1447.72 216.406 1452.18 220.879 1452.18 226.391V243.918C1452.18 249.441 1447.7 253.918 1442.18 253.918H1345.68C1335.18 253.918 1325.28 251.518 1316.28 247.018C1303.08 240.418 1292.28 229.618 1285.98 216.418C1281.48 207.418 1279.08 197.518 1279.08 187.018V53.918C1279.08 48.3951 1283.56 43.918 1289.08 43.918H1306.58C1312.1 43.918 1316.58 48.3951 1316.58 53.918V190.618C1318.38 203.818 1328.88 214.318 1342.08 216.118Z" fill="white"/>
<path d="M1585.18 216.118L1685.31 216.391C1690.82 216.406 1695.28 220.879 1695.28 226.391V243.918C1695.28 249.441 1690.8 253.918 1685.28 253.918H1588.78C1578.28 253.918 1568.38 251.518 1559.38 247.018C1546.18 240.418 1535.38 229.618 1529.08 216.418C1524.58 207.418 1522.18 197.518 1522.18 187.018V53.918C1522.18 48.3951 1526.66 43.918 1532.18 43.918H1549.68C1555.2 43.918 1559.68 48.3951 1559.68 53.918V190.618C1561.48 203.818 1571.98 214.318 1585.18 216.118Z" fill="white"/>
<path d="M1802.78 243.918C1802.78 249.441 1798.3 253.918 1792.78 253.918H1775.28C1769.76 253.918 1765.28 249.441 1765.28 243.918V53.918C1765.28 48.3951 1769.76 43.918 1775.28 43.918H1792.78C1798.3 43.918 1802.78 48.3951 1802.78 53.918V243.918Z" fill="white"/>
<path d="M1929.18 43.918H2072.78C2078.3 43.918 2082.78 48.3951 2082.78 53.918V71.418C2082.78 76.9408 2078.3 81.418 2072.78 81.418H1929.48C1918.98 81.418 1910.28 90.118 1910.28 100.618V110.118C1910.28 115.641 1914.76 120.118 1920.28 120.118H2035.28C2040.8 120.118 2045.28 124.595 2045.28 130.118V147.618C2045.28 153.141 2040.8 157.618 2035.28 157.618H1919.98C1914.46 157.618 1909.98 162.095 1909.98 167.618V243.918C1909.98 249.441 1905.5 253.918 1899.98 253.918H1882.78C1877.26 253.918 1872.78 249.441 1872.78 243.918V100.618C1872.78 69.418 1897.98 43.918 1929.18 43.918Z" fill="white"/>
<path d="M2312.68 47.3605C2314.57 44.9051 2317.5 43.4668 2320.6 43.4668H2342.42C2350.73 43.4668 2355.42 53.0044 2350.34 59.5781L2281.48 148.767L2279.13 151.742C2277.74 153.507 2276.98 155.69 2276.98 157.938V243.467C2276.98 248.99 2272.5 253.467 2266.98 253.467H2249.48C2243.96 253.467 2239.48 248.99 2239.48 243.467V158.607C2239.48 156.317 2238.69 154.095 2237.25 152.315L2234.38 148.767L2165.52 59.5781C2160.44 53.0044 2165.13 43.4668 2173.43 43.4668H2195.56C2198.66 43.4668 2201.59 44.9051 2203.48 47.3605L2250.16 107.897C2254.16 113.088 2262 113.088 2266 107.897L2312.68 47.3605ZM2153.08 254.067C2152.97 254.178 2152.78 254.099 2152.78 253.943V253.943C2152.78 253.845 2152.86 253.767 2152.96 253.767V253.767C2153.11 253.767 2153.19 253.956 2153.08 254.067V254.067ZM2362.78 253.881C2362.78 254.002 2362.62 254.041 2362.56 253.933V253.933C2362.52 253.856 2362.58 253.767 2362.66 253.767V253.767C2362.73 253.767 2362.78 253.818 2362.78 253.881V253.881Z" fill="white"/>
<defs>
<linearGradient id="paint0_linear_553_2" x1="14.2963" y1="268.554" x2="168.039" y2="220.86" gradientUnits="userSpaceOnUse">
<stop stop-color="#9AFF6A"/>
<stop offset="1" stop-color="#E2FFD5"/>
</linearGradient>
<linearGradient id="paint1_linear_553_2" x1="240.06" y1="270.621" x2="393.802" y2="222.927" gradientUnits="userSpaceOnUse">
<stop stop-color="#9AFF6A"/>
<stop offset="1" stop-color="#E2FFD5"/>
</linearGradient>
</defs>
</svg>
